<svg width="106" height="17" viewBox="0 0 106 17" fill="none" xmlns="http://www.w3.org/2000/svg">
<path d="M7.09852 0.618975C7.5983 0.618975 8.04801 0.704357 8.44783 0.875116C8.8619 1.03164 9.24027 1.20952 9.58294 1.40873C9.93987 1.60796 10.2754 1.79294 10.5895 1.96371C10.9036 2.12023 11.2249 2.19849 11.5533 2.19849C11.8103 2.18427 12.103 2.14869 12.4314 2.09177C12.7169 2.03485 13.0454 1.94947 13.4165 1.83563C13.802 1.70756 14.2304 1.52257 14.7016 1.28067C14.2304 1.73603 13.8449 2.12023 13.5451 2.43329C13.2595 2.73212 13.0382 2.98114 12.8811 3.18036C12.6955 3.40804 12.5599 3.58591 12.4742 3.71398C12.3885 3.87051 12.26 4.1053 12.0887 4.41836C11.9316 4.70296 11.7175 5.08717 11.4462 5.57098C11.175 6.04057 10.8322 6.6596 10.4182 7.428C10.4182 6.44613 10.3182 5.68482 10.1184 5.14409C9.93274 4.60335 9.72567 4.19068 9.49723 3.90608C9.22595 3.5788 8.91898 3.37247 8.57631 3.28708C8.2622 3.24439 7.9481 3.30131 7.63394 3.45784C7.31984 3.60014 7.00574 3.81359 6.69164 4.09819C6.39179 4.38279 6.09907 4.72431 5.81352 5.12274C5.54224 5.50695 5.29238 5.9125 5.06393 6.3394C4.84976 6.76628 4.67128 7.20032 4.5285 7.64141C4.38572 8.06836 4.29292 8.46676 4.25008 8.83676C4.20725 9.16407 4.20011 9.54827 4.22867 9.98936C4.25722 10.4162 4.32147 10.8574 4.42142 11.3127C4.52137 11.7539 4.64986 12.1879 4.80692 12.6148C4.96398 13.0417 5.15673 13.4259 5.38518 13.7674C5.62791 14.0947 5.89919 14.3651 6.19904 14.5785C6.49889 14.7777 6.84156 14.8702 7.22706 14.856C7.65538 14.8276 8.07658 14.6994 8.49065 14.4718C8.84758 14.2868 9.2117 14.0022 9.58294 13.618C9.95412 13.2195 10.2754 12.6575 10.5467 11.9317L13.7164 12.5081C12.8026 13.618 11.9102 14.4505 11.0393 15.0054C10.1826 15.5604 9.41157 15.9517 8.72623 16.1794C7.92666 16.4355 7.16992 16.5565 6.45606 16.5422C5.55652 16.4426 4.71412 16.1723 3.92883 15.7312C3.14354 15.29 2.46533 14.7564 1.89421 14.1303C1.33736 13.49 0.901887 12.7927 0.58777 12.0385C0.273653 11.2843 0.138012 10.5443 0.180846 9.81863C0.209402 9.3348 0.309348 8.7727 0.480684 8.13235C0.652019 7.47779 0.880467 6.80896 1.16603 6.12592C1.46587 5.44291 1.82282 4.77411 2.23688 4.11954C2.65094 3.46496 3.10784 2.88153 3.60757 2.36925C4.1073 1.84275 4.64986 1.42297 5.23526 1.1099C5.83494 0.782618 6.45606 0.618975 7.09852 0.618975ZM14.2352 6.8517L18.1759 6.89439C17.9474 7.76242 17.7761 8.50234 17.6619 9.11422C17.5619 9.7261 17.4977 10.2384 17.4692 10.6511C17.412 11.1206 17.3978 11.5191 17.4263 11.8464C17.4692 12.1452 17.5406 12.4653 17.6405 12.8069C17.7262 13.0915 17.8547 13.4188 18.026 13.7887C18.1973 14.1587 18.4258 14.5287 18.7113 14.8987C18.54 14.8418 18.3544 14.7991 18.1545 14.7706C17.9546 14.7421 17.769 14.7208 17.5976 14.7066C17.3978 14.6923 17.1979 14.6923 16.9979 14.7066C16.7981 14.7208 16.5767 14.7421 16.334 14.7706C16.1342 14.7991 15.8914 14.8347 15.6059 14.8773C15.3203 14.92 15.0204 14.977 14.7063 15.0481C14.9205 14.4078 15.0847 13.8528 15.1989 13.3832C15.3275 12.9136 15.4203 12.5223 15.4773 12.2093C15.5345 11.8393 15.5702 11.5404 15.5844 11.3127C15.5844 11.0282 15.5844 10.708 15.5844 10.3522C15.5844 9.98225 15.5844 9.62653 15.5844 9.28501C15.5844 8.94349 15.5773 8.64466 15.563 8.3885C15.5487 8.11814 15.5202 7.94735 15.4773 7.87626L15.2632 7.66279C15.1775 7.59163 15.049 7.492 14.8777 7.36395C14.7207 7.22163 14.5065 7.05091 14.2352 6.8517ZM15.7558 3.56456C16.0556 3.40804 16.3555 3.36535 16.6553 3.4365C16.9694 3.50765 17.2121 3.64283 17.3835 3.84205C17.5548 4.04127 17.612 4.27606 17.5548 4.54643C17.512 4.8168 17.2835 5.08005 16.8695 5.33619C16.4554 5.5781 16.0913 5.66348 15.7772 5.59233C15.4631 5.52118 15.2418 5.37177 15.1133 5.14409C14.9848 4.91641 14.9634 4.65315 15.049 4.35433C15.1347 4.04127 15.3703 3.77802 15.7558 3.56456ZM20.4509 14.0449C20.5508 13.5753 20.6222 13.1626 20.6651 12.8069C20.7221 12.4369 20.765 12.131 20.7935 11.889C20.8221 11.6045 20.8364 11.3625 20.8364 11.1633C20.8221 10.9214 20.8078 10.6368 20.7935 10.3096C20.7935 9.96805 20.7793 9.63363 20.7507 9.30632C20.7365 8.9648 20.715 8.66597 20.6864 8.40987C20.6579 8.13945 20.6222 7.94735 20.5793 7.83351C20.5223 7.71967 20.4437 7.59873 20.3438 7.47069C20.1439 7.22874 19.8512 6.99396 19.4657 6.76628C19.7941 6.69512 20.0725 6.63823 20.3009 6.59555C20.5437 6.5386 20.7436 6.48881 20.9006 6.44613C21.0719 6.38918 21.2219 6.3394 21.3504 6.29671C21.4646 6.25403 21.6002 6.21135 21.7573 6.16867C21.8858 6.14019 22.0429 6.10461 22.2285 6.06192C22.4141 6.01923 22.6283 5.96942 22.871 5.9125L22.8067 7.85489C23.2636 7.31416 23.7277 6.90859 24.1989 6.63823C24.67 6.36787 25.1127 6.17577 25.5267 6.06192C25.9979 5.91962 26.4619 5.84847 26.9188 5.84847C27.4899 5.87693 28.0182 5.96942 28.5037 6.12592C29.0034 6.28251 29.4317 6.46744 29.7887 6.68091C30.1599 6.88012 30.4598 7.09359 30.6882 7.32127C30.9167 7.54895 31.0523 7.74815 31.0952 7.91894C31.2665 8.47387 31.3093 8.98617 31.2236 9.45574C31.138 9.9111 31.0238 10.3594 30.881 10.8005C30.7525 11.2274 30.6383 11.6543 30.5383 12.0811C30.4526 12.5081 30.4883 12.9705 30.6454 13.4686C30.7025 13.5966 30.7596 13.7247 30.8167 13.8528C30.8738 13.9666 30.9452 14.0805 31.0309 14.1943C31.1165 14.3081 31.2165 14.4007 31.3307 14.4718C31.1737 14.4576 31.0166 14.4505 30.8595 14.4505C30.7025 14.4362 30.5597 14.422 30.4312 14.4078C30.2741 14.3935 30.1313 14.3793 30.0029 14.3651C29.8601 14.3508 29.6673 14.3437 29.4246 14.3437C29.0105 14.3437 28.368 14.3651 27.4971 14.4078C27.6256 14.1089 27.7255 13.8599 27.7969 13.6607C27.8826 13.4472 27.954 13.2765 28.0111 13.1484C28.0682 12.9919 28.111 12.8709 28.1396 12.7856C28.3109 12.3729 28.4109 11.9033 28.4394 11.3768C28.4823 10.8503 28.4466 10.3167 28.3323 9.77595C28.2895 9.59095 28.2181 9.37037 28.1181 9.11422C28.0182 8.85807 27.8826 8.60908 27.7113 8.36713C27.5542 8.12525 27.3615 7.91894 27.133 7.74815C26.9188 7.57742 26.6689 7.47779 26.3834 7.44931C26.0978 7.4209 25.7766 7.492 25.4196 7.66279C25.077 7.83351 24.7057 8.14662 24.3059 8.60197C24.0061 8.98617 23.7705 9.45574 23.5992 10.0107C23.4421 10.4803 23.335 11.0709 23.2779 11.7823C23.2208 12.4796 23.3065 13.2978 23.5349 14.237C23.335 14.2085 23.1494 14.1943 22.9781 14.1943C22.8067 14.1801 22.6639 14.1658 22.5497 14.1516C22.4069 14.1374 22.2785 14.1231 22.1642 14.1089C22.0357 14.1089 21.893 14.1018 21.7359 14.0876C21.5931 14.0876 21.4146 14.0876 21.2005 14.0876C20.9863 14.0734 20.7365 14.0591 20.4509 14.0449ZM38.5102 12.9563C38.91 12.9563 39.2812 12.9136 39.6239 12.8282C39.9094 12.7571 40.1807 12.6432 40.4377 12.4867C40.709 12.316 40.8875 12.0669 40.9731 11.7396C41.2587 11.7966 41.5014 11.8464 41.7013 11.889C41.9012 11.9175 42.0725 11.946 42.2153 11.9745C42.3724 12.0172 42.508 12.0456 42.6222 12.0598C42.7364 12.0883 42.8721 12.1167 43.0292 12.1452C43.172 12.1737 43.3433 12.2093 43.5432 12.2519C43.7573 12.2804 44.0072 12.3231 44.2928 12.38C44.0786 12.3516 43.8573 12.3729 43.6289 12.444C43.4147 12.5152 43.2077 12.5935 43.0078 12.6788C42.7793 12.7784 42.5651 12.8994 42.3653 13.0417C42.2367 13.1271 42.0868 13.2551 41.9155 13.4259C41.7585 13.5966 41.53 13.7603 41.2302 13.9168C40.9303 14.0734 40.5305 14.2085 40.0308 14.3224C39.5454 14.422 38.9171 14.4576 38.1461 14.4291C37.2181 14.4007 36.4399 14.237 35.8117 13.9382C35.1834 13.6251 34.6766 13.248 34.2911 12.8069C33.9055 12.3516 33.6271 11.8606 33.4558 11.3341C33.2844 10.8076 33.1916 10.3167 33.1773 9.86131C33.1631 9.40595 33.2987 8.92922 33.5843 8.43118C33.8699 7.93315 34.2696 7.47779 34.7836 7.06511C35.3119 6.65244 35.9473 6.31802 36.6898 6.06192C37.4322 5.79155 38.246 5.65637 39.1313 5.65637C39.6453 5.65637 40.1165 5.7204 40.5448 5.84847C40.9874 5.96231 41.3872 6.11882 41.7441 6.31802C42.1154 6.51729 42.4367 6.74497 42.7079 7.00106C42.9792 7.24301 43.2077 7.492 43.3933 7.74815C43.5789 8.01851 43.736 8.30314 43.8644 8.60197C43.9787 8.85807 44.0715 9.1498 44.1428 9.47711C44.2142 9.80436 44.2357 10.1388 44.2071 10.4803C43.122 10.5088 42.2439 10.5301 41.5728 10.5443C40.9161 10.5586 40.402 10.5657 40.0308 10.5657H39.067H38.3389C38.0818 10.5657 37.7463 10.5728 37.3322 10.587C36.9182 10.6012 36.4113 10.6226 35.8117 10.6511C35.883 11.2203 36.0615 11.6614 36.3471 11.9745C36.6469 12.2732 36.961 12.5009 37.2894 12.6575C37.6606 12.8282 38.0676 12.9279 38.5102 12.9563ZM36.5827 9.11422C37.0396 9.1427 37.4179 9.16407 37.7178 9.17827C38.0319 9.19248 38.2889 9.20675 38.4888 9.22096C38.7029 9.23516 38.8743 9.24233 39.0028 9.24233H39.5382C39.8952 9.24233 40.5591 9.22096 41.53 9.17827C41.4872 8.55213 41.3515 8.07546 41.1231 7.74815C40.9089 7.4209 40.6804 7.17895 40.4377 7.02243C40.1522 6.8517 39.838 6.75207 39.4953 6.7236C38.5673 6.73786 37.8748 6.92996 37.4179 7.2999C36.9753 7.66989 36.6969 8.27466 36.5827 9.11422ZM53.0785 0.298803C53.8495 0.327263 54.6277 0.469562 55.413 0.725698C56.2125 0.967608 56.9479 1.36605 57.6189 1.92101C58.29 2.46175 58.8611 3.16613 59.3323 4.03415C59.8035 4.88795 60.0961 5.93385 60.2104 7.17185C60.3103 8.1822 60.1819 9.18538 59.8249 10.1815C59.4822 11.1633 59.0039 12.0669 58.39 12.8923C57.776 13.7176 57.0692 14.422 56.2697 15.0054C55.4701 15.5746 54.6705 15.9517 53.871 16.1367C53.3855 16.2505 52.8501 16.2648 52.2647 16.1794C51.6936 16.0798 51.1081 15.9019 50.5085 15.6457C49.9231 15.3754 49.3448 15.0339 48.7737 14.6212C48.2168 14.2085 47.71 13.7389 47.2531 13.2124C46.7962 12.6717 46.4107 12.0883 46.0966 11.4622C45.7967 10.8361 45.6111 10.1815 45.5397 9.49842C45.4683 8.92922 45.4612 8.30314 45.5183 7.6201C45.5897 6.9228 45.7253 6.23266 45.9252 5.54964C46.1394 4.85238 46.4321 4.18357 46.8033 3.54322C47.1888 2.88864 47.6743 2.31945 48.2597 1.83563C48.8451 1.33758 49.5304 0.953377 50.3158 0.68301C51.1153 0.398412 52.0362 0.270342 53.0785 0.298803ZM49.2449 8.94349C49.045 10.4661 49.1878 11.6898 49.6732 12.6148C50.173 13.5397 50.9225 14.1018 51.922 14.301C52.4074 14.4007 52.8715 14.301 53.3141 14.0022C53.771 13.6892 54.1851 13.2409 54.5563 12.6575C54.9275 12.074 55.2488 11.391 55.5201 10.6084C55.7913 9.82573 55.9913 9.00749 56.1197 8.15372C56.2482 7.2999 56.2554 6.5315 56.1411 5.84847C56.0412 5.15121 55.8627 4.56066 55.6057 4.07684C55.3487 3.5788 55.0346 3.19459 54.6634 2.92422C54.3064 2.65385 53.9352 2.50444 53.5497 2.47598C52.8786 2.43329 52.2932 2.61116 51.7935 3.0096C51.2938 3.39381 50.8726 3.89897 50.5299 4.52508C50.1872 5.15121 49.9088 5.85558 49.6946 6.63823C49.4947 7.4209 49.3448 8.1893 49.2449 8.94349ZM61.9716 14.0449C62.0715 13.5753 62.1428 13.1626 62.1854 12.8069C62.2427 12.4369 62.2853 12.131 62.314 11.889C62.3426 11.6045 62.3566 11.3625 62.3566 11.1633C62.3426 10.9214 62.328 10.6368 62.314 10.3096C62.314 9.96805 62.3 9.63363 62.2713 9.30632C62.2567 8.9648 62.2354 8.66597 62.2068 8.40987C62.1781 8.13945 62.1428 7.94735 62.1002 7.83351C62.0429 7.71967 61.9643 7.59873 61.8644 7.47069C61.6646 7.22874 61.3716 6.99396 60.9859 6.76628C61.3143 6.69512 61.5927 6.63823 61.8211 6.59555C62.0642 6.5386 62.264 6.48881 62.4212 6.44613C62.5924 6.38918 62.7422 6.3394 62.8708 6.29671C62.9853 6.25403 63.1206 6.21135 63.2777 6.16867C63.4063 6.14019 63.5634 6.10461 63.7492 6.06192C63.9344 6.01923 64.1489 5.96942 64.3913 5.9125L64.3274 7.85489C64.7843 7.31416 65.2479 6.90859 65.7194 6.63823C66.1903 6.36787 66.6332 6.17577 67.0474 6.06192C67.5183 5.91962 67.9825 5.84847 68.4394 5.84847C69.0103 5.87693 69.5384 5.96942 70.024 6.12592C70.5241 6.28251 70.9524 6.46744 71.3094 6.68091C71.6804 6.88012 71.9801 7.09359 72.2085 7.32127C72.437 7.54895 72.5728 7.74815 72.6155 7.91894C72.7867 8.47387 72.8299 8.98617 72.744 9.45574C72.6587 9.9111 72.5442 10.3594 72.4016 10.8005C72.2731 11.2274 72.1586 11.6543 72.0587 12.0811C71.9734 12.5081 72.0087 12.9705 72.1659 13.4686C72.2232 13.5966 72.2798 13.7247 72.3371 13.8528C72.3943 13.9666 72.4656 14.0805 72.5515 14.1943C72.6368 14.3081 72.7367 14.4007 72.8512 14.4718C72.6941 14.4576 72.5369 14.4505 72.3797 14.4505C72.2232 14.4362 72.08 14.422 71.9515 14.4078C71.7949 14.3935 71.6517 14.3793 71.5232 14.3651C71.3806 14.3508 71.1875 14.3437 70.9451 14.3437C70.5308 14.3437 69.8887 14.3651 69.0176 14.4078C69.1461 14.1089 69.246 13.8599 69.3173 13.6607C69.4032 13.4472 69.4745 13.2765 69.5317 13.1484C69.5884 12.9919 69.6316 12.8709 69.6603 12.7856C69.8315 12.3729 69.9314 11.9033 69.96 11.3768C70.0026 10.8503 69.9673 10.3167 69.8528 9.77595C69.8101 9.59095 69.7389 9.37037 69.6383 9.11422C69.5384 8.85807 69.4032 8.60908 69.232 8.36713C69.0748 8.12525 68.8817 7.91894 68.6533 7.74815C68.4394 7.57742 68.1897 7.47779 67.904 7.44931C67.6182 7.4209 67.2972 7.492 66.9402 7.66279C66.5972 7.83351 66.2262 8.14662 65.8266 8.60197C65.5263 8.98617 65.2911 9.45574 65.1199 10.0107C64.9628 10.4803 64.8555 11.0709 64.7983 11.7823C64.741 12.4796 64.8269 13.2978 65.0554 14.237C64.8555 14.2085 64.6697 14.1943 64.4986 14.1943C64.3274 14.1801 64.1842 14.1658 64.0703 14.1516C63.9277 14.1374 63.7992 14.1231 63.6847 14.1089C63.5561 14.1089 63.4136 14.1018 63.2564 14.0876C63.1139 14.0876 62.9354 14.0876 62.7209 14.0876C62.5065 14.0734 62.2567 14.0591 61.9716 14.0449ZM80.0306 12.9563C80.4302 12.9563 80.8018 12.9136 81.1442 12.8282C81.4299 12.7571 81.701 12.6432 81.9581 12.4867C82.2292 12.316 82.4077 12.0669 82.4936 11.7396C82.7793 11.7966 83.0217 11.8464 83.2216 11.889C83.422 11.9175 83.5932 11.946 83.7357 11.9745C83.8929 12.0172 84.0287 12.0456 84.1427 12.0598C84.2572 12.0883 84.3924 12.1167 84.5496 12.1452C84.6922 12.1737 84.864 12.2093 85.0638 12.2519C85.2776 12.2804 85.528 12.3231 85.8131 12.38C85.5993 12.3516 85.3775 12.3729 85.1491 12.444C84.9352 12.5152 84.7281 12.5935 84.5283 12.6788C84.2998 12.7784 84.0854 12.8994 83.8856 13.0417C83.7571 13.1271 83.6072 13.2551 83.436 13.4259C83.2788 13.5966 83.0504 13.7603 82.7507 13.9168C82.4509 14.0734 82.0513 14.2085 81.5511 14.3224C81.0656 14.422 80.4375 14.4576 79.6663 14.4291C78.7385 14.4007 77.9606 14.237 77.3319 13.9382C76.7038 13.6251 76.1969 13.248 75.8113 12.8069C75.4257 12.3516 75.1473 11.8606 74.9761 11.3341C74.8049 10.8076 74.7123 10.3167 74.6977 9.86131C74.6837 9.40595 74.8189 8.92922 75.1046 8.43118C75.3904 7.93315 75.79 7.47779 76.3042 7.06511C76.8323 6.65244 77.4677 6.31802 78.2103 6.06192C78.9529 5.79155 79.7668 5.65637 80.652 5.65637C81.1655 5.65637 81.637 5.7204 82.0653 5.84847C82.5082 5.96231 82.9078 6.11882 83.2648 6.31802C83.6358 6.51729 83.9569 6.74497 84.2286 7.00106C84.4997 7.24301 84.7281 7.492 84.9139 7.74815C85.0991 8.01851 85.2563 8.30314 85.3848 8.60197C85.4993 8.85807 85.5919 9.1498 85.6632 9.47711C85.7345 9.80436 85.7564 10.1388 85.7278 10.4803C84.6422 10.5088 83.7644 10.5301 83.093 10.5443C82.4363 10.5586 81.9228 10.5657 81.5511 10.5657H80.5874H79.8594C79.6023 10.5657 79.2667 10.5728 78.853 10.587C78.4388 10.6012 77.9319 10.6226 77.3319 10.6511C77.4037 11.2203 77.5822 11.6614 77.8673 11.9745C78.1671 12.2732 78.4814 12.5009 78.8098 12.6575C79.1814 12.8282 79.5883 12.9279 80.0306 12.9563ZM78.1031 9.11422C78.56 9.1427 78.9383 9.16407 79.238 9.17827C79.5524 9.19248 79.8095 9.20675 80.0093 9.22096C80.2237 9.23516 80.3949 9.24233 80.5234 9.24233H81.0589C81.4159 9.24233 82.0793 9.22096 83.0504 9.17827C83.0077 8.55213 82.8719 8.07546 82.6434 7.74815C82.4296 7.4209 82.2012 7.17895 81.9581 7.02243C81.6724 6.8517 81.3586 6.75207 81.0157 6.7236C80.0879 6.73786 79.3952 6.92996 78.9383 7.2999C78.496 7.66989 78.2176 8.27466 78.1031 9.11422ZM87.4457 1.3447C87.7168 1.54392 87.9885 1.69333 88.2596 1.79294C88.5453 1.87832 88.8024 1.93524 89.0309 1.96371C89.2873 2.00639 89.5444 2.01351 89.8015 1.98505C90.0445 1.95659 90.2943 1.87121 90.5514 1.72891C90.8079 1.58661 91.1082 1.4372 91.4506 1.28067C91.7936 1.12414 92.1932 0.988955 92.6501 0.875116C93.121 0.747046 93.6851 0.68301 94.3418 0.68301C94.6275 0.68301 94.9272 0.73993 95.2416 0.853769C95.5699 0.967608 95.8843 1.11702 96.184 1.30201C96.4837 1.47277 96.7548 1.66488 96.9979 1.87832C97.255 2.09177 97.4475 2.30522 97.576 2.51867C97.7186 2.73212 97.8185 3.08075 97.8758 3.56456C97.933 4.03415 97.9543 4.54643 97.9403 5.1014C97.9257 5.65637 97.8758 6.20425 97.7899 6.74497C97.7186 7.28569 97.6114 7.72684 97.4688 8.06836C97.2976 8.36713 96.9693 8.75139 96.4837 9.22096C96.0695 9.61942 95.4487 10.1317 94.6202 10.7578C93.7923 11.3839 92.6787 12.131 91.2794 12.999C92.1073 12.9848 92.7999 12.9634 93.3567 12.935C93.9282 12.8923 94.3918 12.8496 94.7488 12.8069C95.163 12.75 95.4914 12.693 95.7338 12.6361C95.9483 12.5508 96.1767 12.4298 96.4192 12.2732C96.6196 12.131 96.8334 11.946 97.0619 11.7183C97.3049 11.4906 97.5401 11.1918 97.7685 10.8218C97.8118 11.5902 97.8544 12.195 97.8971 12.6361C97.9257 12.8923 97.947 13.1129 97.9616 13.2978C97.9757 13.4686 97.9903 13.6678 98.0043 13.8955C98.0183 14.0947 98.0256 14.3224 98.0256 14.5785C98.0402 14.8347 98.0616 15.105 98.0902 15.3896C97.3762 15.2047 96.7262 15.0623 96.1408 14.9627C95.5553 14.8489 95.0558 14.7706 94.6415 14.7279C94.1566 14.671 93.721 14.6426 93.3354 14.6426C92.9358 14.6568 92.4929 14.6923 92.0074 14.7493C91.5791 14.8062 91.065 14.8915 90.4655 15.0054C89.8801 15.105 89.216 15.2544 88.4734 15.4536C88.4168 15.2971 88.3668 15.1406 88.3236 14.9841C88.2809 14.8133 88.245 14.6497 88.217 14.4931C88.1737 14.3224 88.1384 14.1516 88.1097 13.9808C88.0811 13.8101 88.0525 13.6465 88.0239 13.49C87.9952 13.3476 87.9739 13.1982 87.9599 13.0417C87.9453 12.8852 87.9312 12.7358 87.9166 12.5935C89.0589 11.8677 89.9873 11.2132 90.7013 10.6297C91.4152 10.032 91.9787 9.5269 92.393 9.11422C92.8645 8.63039 93.2209 8.1893 93.464 7.79083C93.7064 7.30706 93.9062 6.77338 94.0634 6.18998C94.2206 5.60656 94.2705 5.06582 94.2133 4.56778C94.1706 4.06973 93.9995 3.66418 93.6997 3.35112C93.3994 3.02383 92.9212 2.88153 92.2645 2.92422C91.8362 2.95268 91.4293 3.1021 91.0436 3.37246C90.6726 3.64283 90.3297 3.97012 90.0159 4.35433C89.7016 4.73854 89.4232 5.15121 89.1807 5.59233C88.9376 6.01923 88.7305 6.42476 88.5593 6.80896C88.4022 7.19322 88.2736 7.51337 88.1737 7.76952C88.0884 8.02567 88.0452 8.16082 88.0452 8.17503C88.0312 8.20351 88.0098 8.09677 87.9812 7.85489C87.9666 7.613 87.9453 7.31416 87.9166 6.95838C87.9026 6.58845 87.8813 6.20425 87.8527 5.80578C87.824 5.40734 87.7954 5.07294 87.7668 4.80257C87.7528 4.58912 87.7314 4.31164 87.7028 3.97012C87.6602 3.41515 87.5743 2.54001 87.4457 1.3447ZM100.129 3.15901C100.629 3.00248 101.036 2.87441 101.35 2.77481C101.664 2.66097 101.921 2.56847 102.121 2.49732C102.35 2.41195 102.521 2.33368 102.635 2.26253L103.149 2.00639C103.349 1.90679 103.606 1.77871 103.92 1.62219C104.235 1.45142 104.641 1.23798 105.141 0.98184C105.026 1.52257 104.941 2.03485 104.884 2.51867C104.841 2.98826 104.805 3.40804 104.777 3.77802C104.734 4.20491 104.713 4.59623 104.713 4.95198C104.698 5.25081 104.677 5.64925 104.648 6.1473C104.634 6.64534 104.613 7.18606 104.584 7.76952C104.556 8.35292 104.527 8.9506 104.498 9.56247C104.47 10.1744 104.448 10.7507 104.434 11.2914C104.434 11.8179 104.441 12.2732 104.456 12.6575C104.484 13.0417 104.534 13.305 104.606 13.4472C104.677 13.618 104.769 13.7816 104.884 13.9382C104.984 14.0805 105.098 14.2441 105.226 14.4291C105.369 14.5999 105.541 14.7706 105.74 14.9414C105.412 15.0126 105.105 15.0765 104.819 15.1335C104.534 15.1762 104.284 15.2118 104.07 15.2402C103.813 15.2829 103.585 15.3185 103.385 15.3469C103.17 15.3612 102.878 15.3968 102.507 15.4536C102.193 15.4963 101.793 15.5533 101.307 15.6244C100.822 15.6813 100.222 15.7454 99.5084 15.8165C99.8794 15.5889 100.172 15.3683 100.386 15.1548C100.615 14.9414 100.786 14.7564 100.9 14.5999C101.029 14.4149 101.108 14.237 101.136 14.0663C101.15 13.9524 101.172 13.6465 101.2 13.1484C101.243 12.6361 101.279 12.0385 101.307 11.3554C101.35 10.6582 101.386 9.9182 101.415 9.13559C101.457 8.33872 101.486 7.59873 101.5 6.9157C101.514 6.23266 101.521 5.64925 101.521 5.16543C101.521 4.68162 101.5 4.3899 101.457 4.2903C101.4 4.19068 101.315 4.07684 101.2 3.94878C101.1 3.83494 100.964 3.71398 100.793 3.58591C100.636 3.45784 100.415 3.31555 100.129 3.15901Z" fill="#394BA7"/>
</svg>
