<svg width="81" height="30" viewBox="0 0 81 30" fill="none" xmlns="http://www.w3.org/2000/svg">
<path d="M5.92439 29.3478C8.42969 29.3478 10.795 28.125 12.5845 26.9022C13.6115 26.1837 14.5763 25.3736 15.4944 24.4413L13.487 22.393C11.8687 23.9368 8.66313 26.1073 6.17336 26.1073C5.37975 26.1073 4.85068 25.8322 4.21268 24.7163C7.83839 23.7381 10.5148 21.0326 10.5148 18.5105C10.5148 16.2025 8.74094 14.6892 6.42234 14.6892C2.15863 14.6892 0.0734634 19.5194 0.0734634 22.9739C0.0734634 26.3519 2.01858 29.3478 5.92439 29.3478ZM3.85478 22.1637C3.85478 20.8033 4.10375 17.6087 6.76468 17.6087C7.26263 17.6087 7.65163 18.266 7.65163 19.1831C7.65163 20.467 5.33307 22.1637 3.85478 22.1637ZM18.0516 16.875C20.9459 13.4205 24.2137 8.89604 24.2137 5.02887C24.2137 2.26223 23.7313 0 20.5725 0C16.3554 0 13.8812 10.9902 12.8853 16.982C12.3873 19.9779 12.1228 22.4388 11.9517 24.2272C11.8583 25.2667 11.796 26.1991 11.765 27.0245C12.5119 27.4677 13.2899 27.8498 14.1146 28.1862C15.5307 28.7823 17.3358 29.3478 19.0941 29.3478H19.4832C19.8722 29.195 20.2457 29.0421 20.588 28.874C21.1949 28.5835 21.864 28.232 22.2219 27.8804C25.1474 27.2232 27.3103 26.3213 29.5978 24.2884L28.3996 21.7663C26.7502 23.3866 25.2252 24.0744 23.7158 24.9457C24.9451 23.0808 25.2096 21.4912 25.2096 19.4277C25.2096 16.9514 23.7625 14.6739 21.3349 14.6739C20.3857 14.6739 19.4676 15.6216 18.3005 17.0431L18.0516 16.875ZM19.701 18.159C21.3349 18.159 21.724 19.0608 21.724 20.0696C21.724 22.4083 20.8214 26.413 18.674 26.413C18.0671 26.413 17.3825 26.2908 16.7755 26.1685C16.4332 26.092 16.0909 26.0156 15.7486 25.9087C15.7796 25.5571 15.8108 25.175 15.8575 24.7623C15.9353 24.0438 16.0598 23.1114 16.2465 22.0109C16.6977 19.2901 18.2539 18.159 19.701 18.159ZM21.226 4.15761C20.9148 8.49861 17.9426 12.4576 16.2465 15.6674C16.7445 12.9772 18.7207 2.93478 20.4324 2.93478C21.1326 2.93478 21.226 3.98947 21.226 4.15761ZM28.4048 24.8845C28.5293 26.8257 28.5604 29.516 30.9723 29.516C32.4195 29.516 34.3646 26.5812 35.5784 24.1203C35.625 25.6488 36.9633 27.1315 39.1885 27.1315C40.5112 27.1315 42.0362 26.5812 43.4056 25.7252V22.1332C42.9543 22.4236 42.5186 22.6987 42.0984 22.928C41.3671 23.3407 40.4801 23.7076 39.8576 23.7076C38.1771 23.7076 37.7569 22.714 37.7569 21.7357C37.7569 21.2619 37.8348 20.8186 37.9436 20.467C37.9904 20.2683 38.0526 20.0849 38.1304 19.9015C39.0485 17.8991 39.7021 17.0737 39.7021 15.9579C39.7021 15.2089 38.9085 14.6739 37.7103 14.6739C36.8077 14.6739 36.0296 15.1936 35.9052 15.7592L31.8127 25.3431L31.5948 25.3583L32.2017 15.6828C32.1861 15.1478 31.7815 14.6739 31.0813 14.6739C30.9723 14.6739 30.8945 14.6892 30.7856 14.7045L28.9183 14.9949C28.2492 15.1019 28.1247 16.3094 28.1247 18.4036C28.1247 20.0238 28.2492 21.3383 28.3737 24.3953L28.4048 24.8845ZM51.3001 26.4283C51.3001 24.8386 50.3976 23.9521 48.6704 23.9521C46.663 23.9521 45.8227 25.3889 45.8227 26.8716C45.8227 28.6141 46.8497 29.3478 48.3747 29.3478C51.2535 29.3478 51.3001 26.6882 51.3001 26.4283ZM63.5829 22.9891C62.2136 24.0897 59.8794 26.413 58.4011 26.413C57.7631 26.413 57.6075 25.8322 57.6075 24.9151C57.6075 22.0873 59.6927 16.9056 59.6927 15.5452C59.6927 15.0102 59.4437 14.6739 58.5723 14.6739C57.6387 14.6739 56.0359 15.1019 55.7402 16.1566C54.9933 19.2136 53.6239 23.6922 53.6239 26.2755C53.6239 28.125 54.3553 29.3478 56.5183 29.3478C58.9147 29.3478 62.0891 27.4372 63.5829 26.092V22.9891ZM56.6272 10.3788C56.6272 11.785 57.483 12.7021 59.3037 12.7021C61.42 12.7021 62.3225 11.3417 62.3225 9.966C62.3225 8.4375 61.1243 7.82609 59.6771 7.82609C57.3741 7.82609 56.6272 9.44635 56.6272 10.3788ZM69.6728 17.7921C69.7346 17.731 69.7193 22.1179 69.9058 22.9433C69.6728 23.5394 69.4079 24.0591 69.1124 24.533C68.6145 25.3431 67.8988 26.1226 67.1518 26.1226C65.7044 26.1226 65.4088 25.2208 65.4088 24.4107C65.4088 22.3625 66.9181 19.1067 69.6728 17.7921ZM79.9113 22.821C79.2892 23.3407 78.6977 23.7993 78.122 24.212C77.1109 24.9151 75.9589 25.6029 75.1808 25.6029C74.3562 25.6029 74.0919 24.533 74.0919 23.3712C74.0919 22.4542 74.3562 21.2772 74.5587 20.7269C76.7218 15.591 79.2892 11.3723 79.8336 5.59443C79.8649 5.2123 79.8801 4.84545 79.8801 4.49388C79.8801 2.15523 79.1644 0 77.2038 0C73.2514 0 69.797 7.67322 69.6104 15.5146C64.8797 15.9426 61.6741 20.4059 61.6741 24.3036C61.6741 26.8563 62.9501 29.3478 65.6267 29.3478C67.525 29.3478 69.4703 28.0944 71.0106 26.627C72.0065 28.9962 73.9047 29.3326 74.481 29.3326C75.5081 29.3326 76.986 28.5835 78.1997 27.8498C78.9154 27.4066 79.6471 26.9174 80.3781 26.3519L79.9113 22.821ZM76.986 6.71028C76.7835 8.86552 75.8813 11.6168 75.0407 13.879C74.5428 15.1936 73.9983 16.5082 73.4068 17.838V17.6851C73.4068 17.0737 73.4068 15.3312 73.5781 13.3135C73.7029 11.8308 74.5122 3.5462 76.504 3.5462C76.8772 3.5462 77.0797 3.91304 77.0797 5.01359C77.0797 5.42629 77.0485 5.99185 76.986 6.71028Z" fill="black"/>
</svg>
