<svg width="77" height="25" viewBox="0 0 77 25" fill="none" xmlns="http://www.w3.org/2000/svg">
<path d="M4.1041 2.09228C4.1041 2.69228 4.09255 3.39612 4.06945 4.20381C4.04635 4.98843 4.02325 5.58843 4.00015 6.00381C3.93085 7.18074 3.8962 8.35766 3.8962 9.53458C3.8962 10.4115 3.93085 11.323 4.00015 12.2692C4.71625 11.2307 5.4901 10.4692 6.3217 9.98458C7.1533 9.49997 8.15815 9.25766 9.33625 9.25766C10.1909 9.25766 10.9879 9.63843 11.7271 10.4C12.4663 11.1615 12.9398 12.05 13.1477 13.0654C13.217 13.9654 13.2517 15.0615 13.2517 16.3538C13.2517 17.1846 13.2979 18.2692 13.3903 19.6077C13.4365 20.1154 13.5635 20.5884 13.7714 21.0269C14.0024 21.4654 14.3258 21.6846 14.7416 21.6846C14.9495 21.6846 15.1112 21.673 15.2267 21.65C15.3653 21.6269 15.4924 21.6154 15.6079 21.6154C15.9313 21.6154 16.1507 21.6961 16.2662 21.8577C16.4048 22.0192 16.4741 22.25 16.4741 22.55C16.4741 23.1038 16.1969 23.5192 15.6425 23.7961C15.0881 24.073 14.5799 24.2115 14.1179 24.2115C12.4547 24.2115 11.3113 23.5192 10.6876 22.1346C10.3411 21.35 10.1216 20.3346 10.0292 19.0884C9.93685 17.8192 9.89065 16.3423 9.89065 14.6577C9.89065 12.9961 9.3247 12.1654 8.1928 12.1654C7.5691 12.1654 6.93385 12.5 6.28705 13.1692C5.66335 13.8154 5.1436 14.6807 4.7278 15.7654C4.312 16.8269 4.1041 17.9346 4.1041 19.0884L4.13875 22.6884C4.13875 23.1961 3.9424 23.5769 3.5497 23.8307C3.157 24.0615 2.7874 24.1769 2.4409 24.1769C1.9327 24.1769 1.4707 24.0269 1.0549 23.7269C0.639095 23.4038 0.431195 23.0461 0.431195 22.6538C0.592895 20.923 0.673745 18.0269 0.673745 13.9654C0.673745 13.2269 0.615995 10.4923 0.500495 5.76151L0.396545 2.57689C0.396545 2.0692 0.627545 1.63074 1.08955 1.26151C1.55155 0.869198 2.0713 0.673045 2.6488 0.673045C3.157 0.673045 3.5266 0.788429 3.7576 1.0192C3.9886 1.24997 4.1041 1.60766 4.1041 2.09228ZM20.8045 1.81535C21.613 1.88458 22.3176 2.10381 22.9182 2.47304C23.5188 2.8192 23.8191 3.34997 23.8191 4.06535C23.8191 4.59612 23.565 5.02304 23.0568 5.34612C22.5717 5.64612 21.9826 5.79612 21.2896 5.79612C20.6197 5.79612 20.1577 5.62304 19.9036 5.27689C19.6495 4.93074 19.5225 4.57305 19.5225 4.20381C19.5225 3.51151 19.5918 2.93458 19.7304 2.47304C19.8921 2.01151 20.2501 1.79228 20.8045 1.81535ZM23.5765 17.15V18.1538C23.5765 19.0538 23.5996 19.9077 23.6458 20.7154C23.7151 21.5 23.796 22.2961 23.8884 23.1038C23.8653 23.3346 23.692 23.5769 23.3686 23.8307C23.0452 24.0615 22.7565 24.1769 22.5024 24.1769C22.0635 24.1769 21.613 24.0961 21.151 23.9346C20.7121 23.75 20.4465 23.5307 20.3541 23.2769C20.2155 22.5384 20.1462 21.8807 20.1462 21.3038C20.1462 19.4115 20.0884 17.2884 19.9729 14.9346C19.8805 12.8577 19.8343 11.4038 19.8343 10.573C19.8343 10.1577 20.0422 9.79997 20.458 9.49997C20.8738 9.19997 21.3127 9.04997 21.7747 9.04997C22.4446 9.04997 22.9066 9.19997 23.1607 9.49997C23.4379 9.79997 23.5765 10.273 23.5765 10.9192V17.15ZM35.522 3.64997C34.829 3.64997 34.4017 4.22689 34.24 5.38074C34.0783 6.94997 33.9974 8.13843 33.9974 8.94612C34.4594 8.99228 34.9445 9.01535 35.4527 9.01535C35.7761 9.01535 36.1919 8.99228 36.7001 8.94612L37.601 8.91151C38.063 8.91151 38.4095 8.99228 38.6405 9.15382C38.8715 9.31535 38.987 9.58074 38.987 9.94997C38.987 10.4577 38.8138 10.8961 38.4673 11.2654C38.1439 11.6115 37.7627 11.7846 37.3238 11.7846C35.6606 11.7846 34.5403 11.8654 33.9628 12.0269C33.9628 13.4346 34.0321 15.4307 34.1707 18.0154L34.24 19.7115L34.3786 22.4115C34.4248 23.0807 34.3555 23.5538 34.1707 23.8307C34.009 24.0846 33.6509 24.2115 33.0965 24.2115C32.0801 24.2115 31.4218 23.6 31.1215 22.3769C30.9367 21.4769 30.7865 20.2192 30.671 18.6038C30.5555 16.9884 30.4978 15.5461 30.4978 14.2769C30.4978 13.6077 30.5324 12.8461 30.6017 11.9923C30.5555 11.9692 30.4285 11.9577 30.2206 11.9577C30.0127 11.9577 29.8625 11.9692 29.7701 11.9923C29.0771 12.0384 28.5689 12.0615 28.2455 12.0615C28.0376 12.0615 27.8297 11.923 27.6218 11.6461C27.4139 11.3461 27.31 10.9884 27.31 10.573C27.31 10.3423 27.3908 10.1346 27.5525 9.94997C27.7142 9.74228 27.9106 9.59228 28.1416 9.49997C28.4881 9.31535 28.9847 9.22305 29.6315 9.22305L30.671 9.25766C30.671 5.98074 31.0406 3.70766 31.7798 2.43843C32.4728 1.23843 33.6163 0.638428 35.2102 0.638428C36.1342 0.638428 36.9773 0.869197 37.7396 1.33074C38.063 1.53843 38.3056 1.79228 38.4673 2.09228C38.6521 2.39228 38.7445 2.68074 38.7445 2.95766C38.7445 3.30381 38.6059 3.66151 38.3287 4.03074C38.0746 4.39997 37.6819 4.58458 37.1506 4.58458C36.9427 4.58458 36.677 4.42304 36.3536 4.09997C36.2381 3.98458 36.1111 3.88074 35.9725 3.78843C35.8339 3.69612 35.6837 3.64997 35.522 3.64997ZM45.8076 18.673C45.8076 19.55 45.9346 20.2307 46.1887 20.7154C46.4659 21.1769 46.8124 21.4077 47.2282 21.4077C47.4592 21.4077 47.6787 21.3961 47.8866 21.373C48.0945 21.3269 48.3024 21.3038 48.5103 21.3038C48.7413 21.3038 48.9376 21.4192 49.0993 21.65C49.2841 21.8807 49.3765 22.1346 49.3765 22.4115C49.3765 22.9654 49.1109 23.4038 48.5796 23.7269C48.0714 24.0269 47.3784 24.1769 46.5006 24.1769C45.8769 24.1769 45.2416 23.9923 44.5948 23.623C43.9711 23.2307 43.4514 22.6307 43.0356 21.823C42.6198 20.9923 42.4119 19.9654 42.4119 18.7423C42.4119 16.1115 42.4581 13.8846 42.5505 12.0615C42.666 9.89228 42.7237 7.15766 42.7237 3.85766C42.7237 2.8192 42.7815 2.09228 42.897 1.67689C43.0356 1.35381 43.255 1.11151 43.5553 0.949966C43.8787 0.765352 44.2137 0.673045 44.5602 0.673045C44.9067 0.673045 45.207 0.730737 45.4611 0.846121C45.7383 0.961506 45.9231 1.14612 46.0155 1.39997C46.1079 1.67689 46.1656 1.95381 46.1887 2.23074C46.2349 2.48458 46.258 2.85381 46.258 3.33843C46.258 4.28458 46.2234 5.19612 46.1541 6.07304C46.1079 7.13458 46.0848 7.90766 46.0848 8.39228C45.9 12.4538 45.8076 15.8807 45.8076 18.673ZM53.9883 1.81535C54.7968 1.88458 55.5013 2.10381 56.1019 2.47304C56.7025 2.8192 57.0028 3.34997 57.0028 4.06535C57.0028 4.59612 56.7487 5.02304 56.2405 5.34612C55.7554 5.64612 55.1664 5.79612 54.4734 5.79612C53.8035 5.79612 53.3415 5.62304 53.0874 5.27689C52.8333 4.93074 52.7062 4.57305 52.7062 4.20381C52.7062 3.51151 52.7755 2.93458 52.9141 2.47304C53.0758 2.01151 53.4339 1.79228 53.9883 1.81535ZM56.7603 17.15V18.1538C56.7603 19.0538 56.7834 19.9077 56.8296 20.7154C56.8989 21.5 56.9797 22.2961 57.0721 23.1038C57.0721 23.3807 56.9104 23.6346 56.587 23.8654C56.2636 24.073 55.9633 24.1769 55.6861 24.1769C55.2472 24.1769 54.7968 24.0961 54.3348 23.9346C53.8959 23.75 53.6302 23.5307 53.5378 23.2769C53.3992 22.5384 53.3299 21.8807 53.3299 21.3038C53.3299 19.4115 53.2722 17.2884 53.1567 14.9346C53.0643 12.8577 53.0181 11.4038 53.0181 10.573C53.0181 10.1577 53.226 9.79997 53.6418 9.49997C54.0576 9.19997 54.4965 9.04997 54.9585 9.04997C55.6284 9.04997 56.0904 9.19997 56.3445 9.49997C56.6217 9.79997 56.7603 10.273 56.7603 10.9192V17.15ZM73.2795 8.77304C73.7415 8.77304 74.0996 8.88843 74.3537 9.1192C74.6309 9.32689 74.7695 9.59228 74.7695 9.91535C74.7695 10.1461 74.7233 10.3884 74.6309 10.6423C74.5616 10.873 74.4807 11.1154 74.3883 11.3692C73.857 12.6154 72.7367 14.3577 71.0273 16.5961C72.7829 18.8577 74.2036 20.3115 75.2893 20.9577C75.3817 21.0038 75.5549 21.0846 75.809 21.2C76.0631 21.3154 76.2595 21.4538 76.398 21.6154C76.5598 21.7769 76.6406 21.9615 76.6406 22.1692C76.6406 22.6769 76.4443 23.0923 76.0516 23.4154C75.682 23.7154 75.2315 23.8654 74.7002 23.8654C73.7993 23.8654 72.8175 23.3692 71.7549 22.3769C70.6923 21.3615 69.7915 20.3 69.0522 19.1923C68.521 20 67.9088 20.8077 67.2158 21.6154C66.5459 22.4 65.9222 23.0692 65.3447 23.623C65.1137 23.8769 64.8365 24.073 64.5131 24.2115C64.2128 24.35 63.9125 24.4192 63.6122 24.4192C63.1964 24.4192 62.8268 24.3269 62.5034 24.1423C62.18 23.9577 62.0183 23.6346 62.0183 23.173C62.0183 23.0577 62.0991 22.873 62.2608 22.6192C62.4225 22.3423 62.5149 22.1807 62.538 22.1346C62.8153 21.65 63.1848 21.1538 63.6469 20.6461C64.1088 20.1154 64.3976 19.7807 64.5131 19.6423C64.7903 19.2961 65.0906 18.9615 65.414 18.6384C65.5988 18.4307 65.876 18.1077 66.2456 17.6692C66.6152 17.2307 66.8693 16.8846 67.0079 16.6307L65.7951 14.9692C65.2176 14.3 64.721 13.7692 64.3052 13.3769C63.8894 12.9615 63.5545 12.7538 63.3004 12.7538C62.9307 12.7538 62.5842 12.8577 62.2608 13.0654C61.9836 13.25 61.7065 13.3423 61.4293 13.3423C61.129 13.3423 60.898 13.273 60.7363 13.1346C60.5746 12.973 60.4937 12.8 60.4937 12.6154C60.4937 11.8307 60.8056 11.1615 61.4293 10.6077C62.053 10.0307 62.8383 9.74228 63.7854 9.74228C64.6863 9.74228 65.4833 10.0538 66.1763 10.6769C66.8924 11.2769 67.5969 12.0846 68.2899 13.1C68.3823 13.1923 68.4863 13.3423 68.6018 13.55C68.7173 13.7577 68.8328 13.9307 68.9483 14.0692C69.2024 13.7 69.6644 12.9846 70.3343 11.923C71.0504 10.6538 71.4778 9.92689 71.6163 9.74228C72.1014 9.09612 72.6558 8.77304 73.2795 8.77304Z" fill="#D00707"/>
</svg>
