<svg width="24" height="24" viewBox="0 0 24 24" fill="none" xmlns="http://www.w3.org/2000/svg">
<path d="M8.51 20H8.43C6.81836 19.9859 5.23002 19.6136 3.78 18.91C3.51327 18.7847 3.29366 18.5773 3.1533 18.3182C3.01295 18.0591 2.95923 17.7619 3 17.47C3.04434 17.1762 3.18039 16.9039 3.38871 16.692C3.59703 16.4801 3.86697 16.3394 4.16 16.29C5.05861 16.1701 5.92309 15.8672 6.7 15.4C5.35116 14.3454 4.31275 12.9456 3.69482 11.3488C3.07689 9.75206 2.90245 8.01786 3.19 6.33002C3.22899 6.06267 3.34396 5.81216 3.52125 5.60828C3.69853 5.4044 3.93066 5.25575 4.19 5.18002C4.44231 5.10078 4.71235 5.09739 4.96657 5.17028C5.22079 5.24317 5.448 5.38912 5.62 5.59002C6.204 6.3558 6.93789 6.99458 7.77691 7.46739C8.61592 7.94019 9.54246 8.2371 10.5 8.34002C10.5457 7.16187 11.052 6.04874 11.91 5.24002C12.3384 4.82979 12.8442 4.50893 13.3978 4.29613C13.9515 4.08333 14.5419 3.98284 15.1348 4.00052C15.7277 4.01821 16.3111 4.15371 16.8511 4.39913C17.3911 4.64455 17.8768 4.99499 18.28 5.43002C18.385 5.52289 18.5156 5.58207 18.6546 5.5999C18.7937 5.61773 18.9349 5.59339 19.06 5.53002C19.2984 5.41757 19.5639 5.37524 19.8255 5.40796C20.0871 5.44069 20.334 5.54713 20.5373 5.71487C20.7407 5.8826 20.8922 6.10471 20.9741 6.35528C21.056 6.60585 21.065 6.87454 21 7.13002C20.7694 8.08014 20.3323 8.96781 19.72 9.73002C19.585 12.5748 18.3309 15.2508 16.2309 17.1746C14.131 19.0985 11.3557 20.1141 8.51 20ZM8.51 18H8.59C9.75267 18.04 10.9117 17.8488 11.9999 17.4375C13.0881 17.0262 14.0839 16.4029 14.9294 15.6039C15.775 14.8049 16.4535 13.8459 16.9257 12.7827C17.3978 11.7195 17.6542 10.5731 17.68 9.41002C17.6965 9.09127 17.828 8.7893 18.05 8.56002C18.2939 8.25127 18.5019 7.91578 18.67 7.56002C18.3097 7.56071 17.9534 7.48535 17.6243 7.33888C17.2951 7.19241 17.0006 6.97812 16.76 6.71002C16.5286 6.48057 16.2537 6.2996 15.9515 6.17768C15.6493 6.05577 15.3258 5.99537 15 6.00002C14.6709 5.99151 14.3434 6.04808 14.0362 6.16649C13.729 6.2849 13.4482 6.46282 13.21 6.69002C12.8886 6.99502 12.6529 7.37909 12.5265 7.80379C12.4002 8.22849 12.3876 8.67892 12.49 9.11002L12.75 10.25L11.58 10.33C10.3811 10.4278 9.17526 10.2638 8.04601 9.84938C6.91677 9.43498 5.89108 8.78007 5.04 7.93002C5.0035 9.24642 5.3328 10.5471 5.99129 11.6876C6.64979 12.828 7.61167 13.7635 8.77 14.39L9.72 14.93L9.09 15.83C8.40869 16.7235 7.47518 17.3923 6.41 17.75C7.09331 17.9213 7.79557 18.0053 8.5 18H8.51Z" fill="#6E7191"/>
</svg>
